<?xml version='1.0' encoding='UTF-8' standalone='no'?>
<svg baseProfile="tiny" height="210mm" version="1.2" viewBox="0 0 2970 2100" width="297mm" xmlns="http://www.w3.org/2000/svg" xmlns:cc="http://creativecommons.org/ns#" xmlns:dc="http://purl.org/dc/elements/1.1/" xmlns:freecad="https://www.freecad.org/wiki/index.php?title=Svg_Namespace" xmlns:inkscape="http://www.inkscape.org/namespaces/inkscape" xmlns:rdf="http://www.w3.org/1999/02/22-rdf-syntax-ns#" xmlns:sodipodi="http://sodipodi.sourceforge.net/DTD/sodipodi-0.dtd" xmlns:svg="http://www.w3.org/2000/svg" xmlns:xlink="http://www.w3.org/1999/xlink">
 <title>FreeCAD SVG Export</title>
 <desc>Drawing page: Page exported from FreeCAD document: ues</desc>
 <defs/>
 <g id="Page" inkscape:groupmode="layer" inkscape:label="TechDraw">
  <g id="Default_Template_A4_Landscape.svg" style="stroke: none;" transform="scale(10.000000, 10.000000)">
   <metadata id="metadata8">
    <rdf:RDF>
     <cc:Work rdf:about="">
      <dc:format>image/svg+xml</dc:format>
      <dc:type rdf:resource="http://purl.org/dc/dcmitype/StillImage"/>
     </cc:Work>
    </rdf:RDF>
   </metadata>
  </g>
  <g fill="none" fill-rule="evenodd" id="DrawingContent" stroke="black" stroke-linecap="square" stroke-linejoin="bevel" stroke-width="1">
   <g fill="#f1f3f5" fill-opacity="1" font-family="Segoe UI" font-size="31.75" font-style="normal" font-weight="400" stroke="none" transform="matrix(1,0,0,1,1482.43,1047.43)">
    <path d="M-1097.65,290.885 C-1125.02,306.683 -1156.06,315 -1187.65,315 L1187.65,315 C1156.06,315 1125.02,306.683 1097.65,290.885 L90,-290.885 C34.3078,-323.038 -34.3078,-323.038 -90,-290.885 L-1097.65,290.885" fill-rule="evenodd" vector-effect="non-scaling-stroke"/>
   </g>
   <g fill="none" font-family="Segoe UI" font-size="31.75" font-style="normal" font-weight="400" stroke="#000000" stroke-linecap="round" stroke-linejoin="bevel" stroke-opacity="1" stroke-width="7" transform="matrix(1,0,0,1,1482.43,1047.43)">
    <path d="M-90,-290.885 C-34.3078,-323.038 34.3078,-323.038 90,-290.885 " fill-rule="evenodd" vector-effect="none"/>
   </g>
   <g fill="none" font-family="Segoe UI" font-size="31.75" font-style="normal" font-weight="400" stroke="#000000" stroke-linecap="round" stroke-linejoin="bevel" stroke-opacity="1" stroke-width="7" transform="matrix(1,0,0,1,1482.43,1047.43)">
    <path d="M1097.65,290.885 L90,-290.885" fill-rule="evenodd" vector-effect="none"/>
   </g>
   <g fill="none" font-family="Segoe UI" font-size="31.75" font-style="normal" font-weight="400" stroke="#000000" stroke-linecap="round" stroke-linejoin="bevel" stroke-opacity="1" stroke-width="7" transform="matrix(1,0,0,1,1482.43,1047.43)">
    <path d="M1187.65,315 C1156.06,315 1125.02,306.683 1097.65,290.885 " fill-rule="evenodd" vector-effect="none"/>
   </g>
   <g fill="none" font-family="Segoe UI" font-size="31.75" font-style="normal" font-weight="400" stroke="#000000" stroke-linecap="round" stroke-linejoin="bevel" stroke-opacity="1" stroke-width="7" transform="matrix(1,0,0,1,1482.43,1047.43)">
    <path d="M-1187.65,315 L1187.65,315" fill-rule="evenodd" vector-effect="none"/>
   </g>
   <g fill="none" font-family="Segoe UI" font-size="31.75" font-style="normal" font-weight="400" stroke="#000000" stroke-linecap="round" stroke-linejoin="bevel" stroke-opacity="1" stroke-width="7" transform="matrix(1,0,0,1,1482.43,1047.43)">
    <path d="M-1097.65,290.885 C-1125.02,306.683 -1156.06,315 -1187.65,315 " fill-rule="evenodd" vector-effect="none"/>
   </g>
   <g fill="none" font-family="Segoe UI" font-size="31.75" font-style="normal" font-weight="400" stroke="#000000" stroke-linecap="round" stroke-linejoin="bevel" stroke-opacity="1" stroke-width="7" transform="matrix(1,0,0,1,1482.43,1047.43)">
    <path d="M-1097.65,290.885 L-90,-290.885" fill-rule="evenodd" vector-effect="none"/>
   </g>
   <g fill="none" font-family="Segoe UI" font-size="31.75" font-style="normal" font-weight="400" stroke="#212529" stroke-linecap="square" stroke-linejoin="bevel" stroke-opacity="1" stroke-width="1" transform="matrix(1,0,0,1,1364.93,1378.45)">
    <text fill="#212529" fill-opacity="1" font-family="osifont" font-size="67" font-style="normal" font-weight="400" stroke="none" x="4" xml:space="preserve" y="92">2.64 mm</text>
   </g>
   <g fill="none" font-family="Segoe UI" font-size="31.75" font-style="normal" font-weight="400" stroke="#212529" stroke-linecap="round" stroke-linejoin="bevel" stroke-opacity="1" stroke-width="3.5" transform="matrix(1,0,0,1,1482.43,1047.43)">
    <path d="M-1187.65,445.779 L1187.65,445.779 M1187.65,315 L1187.65,473.779 M-1187.65,315 L-1187.65,473.779" fill-rule="evenodd" vector-effect="none"/>
   </g>
   <g fill="#212529" fill-opacity="1" font-family="Segoe UI" font-size="31.75" font-style="normal" font-weight="400" stroke="#212529" stroke-linecap="round" stroke-linejoin="bevel" stroke-opacity="1" stroke-width="3.5" transform="matrix(1,0,0,1,2670.08,1493.2)">
    <path d="M0,0 L-35,-5.83333 L-35,5.83333 L0,0" fill-rule="evenodd" vector-effect="none"/>
   </g>
   <g fill="#212529" fill-opacity="1" font-family="Segoe UI" font-size="31.75" font-style="normal" font-weight="400" stroke="#212529" stroke-linecap="round" stroke-linejoin="bevel" stroke-opacity="1" stroke-width="3.5" transform="matrix(1,0,0,1,294.772,1493.2)">
    <path d="M0,0 L35,5.83333 L35,-5.83333 L0,0" fill-rule="evenodd" vector-effect="none"/>
   </g>
   <g fill="none" font-family="Segoe UI" font-size="31.75" font-style="normal" font-weight="400" stroke="#212529" stroke-linecap="square" stroke-linejoin="bevel" stroke-opacity="1" stroke-width="1" transform="matrix(0.866025,-0.5,0.5,0.866025,644.447,849.542)">
    <text fill="#212529" fill-opacity="1" font-family="osifont" font-size="67" font-style="normal" font-weight="400" stroke="none" x="4" xml:space="preserve" y="92">1.29 mm</text>
   </g>
   <g fill="none" font-family="Segoe UI" font-size="31.75" font-style="normal" font-weight="400" stroke="#212529" stroke-linecap="round" stroke-linejoin="bevel" stroke-opacity="1" stroke-width="3.5" transform="matrix(1,0,0,1,1482.43,1047.43)">
    <path d="M-1187,136.128 L-179.349,-445.641 M-90,-290.885 L-193.349,-469.89 M-1097.65,290.885 L-1201,111.879" fill-rule="evenodd" vector-effect="none"/>
   </g>
   <g fill="#212529" fill-opacity="1" font-family="Segoe UI" font-size="31.75" font-style="normal" font-weight="400" stroke="#212529" stroke-linecap="round" stroke-linejoin="bevel" stroke-opacity="1" stroke-width="3.5" transform="matrix(1,0,0,1,1303.08,601.784)">
    <path d="M0,0 L-33.2276,12.4482 L-27.3942,22.5518 L0,0" fill-rule="evenodd" vector-effect="none"/>
   </g>
   <g fill="#212529" fill-opacity="1" font-family="Segoe UI" font-size="31.75" font-style="normal" font-weight="400" stroke="#212529" stroke-linecap="round" stroke-linejoin="bevel" stroke-opacity="1" stroke-width="3.5" transform="matrix(1,0,0,1,295.423,1183.55)">
    <path d="M0,0 L33.2276,-12.4482 L27.3942,-22.5518 L0,0" fill-rule="evenodd" vector-effect="none"/>
   </g>
   <g fill="none" font-family="Segoe UI" font-size="31.75" font-style="normal" font-weight="400" stroke="#212529" stroke-linecap="square" stroke-linejoin="bevel" stroke-opacity="1" stroke-width="1" transform="matrix(0.999972,-0.00748025,0.00748025,0.999972,1425.26,1016.68)">
    <text fill="#212529" fill-opacity="1" font-family="osifont" font-size="67" font-style="normal" font-weight="400" stroke="none" x="4" xml:space="preserve" y="92">120°</text>
   </g>
   <g fill="none" font-family="Segoe UI" font-size="31.75" font-style="normal" font-weight="400" stroke="#212529" stroke-linecap="round" stroke-linejoin="bevel" stroke-opacity="1" stroke-width="3.5" transform="matrix(1,0,0,1,1482.43,1047.43)">
    <path d="M-369.328,-129.562 C-295.587,-2.14668 -157.804,83.5722 -5.68434e-14,83.5722 C157.814,83.5722 295.604,-2.15707 369.341,-129.585 M1097.65,290.885 L345.04,-143.637 M-1097.65,290.885 L-345.04,-143.637" fill-rule="evenodd" vector-effect="none"/>
   </g>
   <g fill="#212529" fill-opacity="1" font-family="Segoe UI" font-size="31.75" font-style="normal" font-weight="400" stroke="#212529" stroke-linecap="round" stroke-linejoin="bevel" stroke-opacity="1" stroke-width="3.5" transform="matrix(1,0,0,1,1851.71,917.788)">
    <path d="M0,0 L-22.5518,27.3942 L-12.4482,33.2276 L0,0" fill-rule="evenodd" vector-effect="none"/>
   </g>
   <g fill="#212529" fill-opacity="1" font-family="Segoe UI" font-size="31.75" font-style="normal" font-weight="400" stroke="#212529" stroke-linecap="round" stroke-linejoin="bevel" stroke-opacity="1" stroke-width="3.5" transform="matrix(1,0,0,1,1113.14,917.788)">
    <path d="M0,0 L12.4482,33.2276 L22.5518,27.3942 L0,0" fill-rule="evenodd" vector-effect="none"/>
   </g>
   <g fill="none" font-family="Segoe UI" font-size="31.75" font-style="normal" font-weight="400" stroke="#212529" stroke-linecap="square" stroke-linejoin="bevel" stroke-opacity="1" stroke-width="1" transform="matrix(0,-1,1,0,1950.12,887.413)">
    <text fill="#212529" fill-opacity="1" font-family="osifont" font-size="67" font-style="normal" font-weight="400" stroke="none" x="4" xml:space="preserve" y="92">0.5 mm</text>
   </g>
   <g fill="none" font-family="Segoe UI" font-size="31.75" font-style="normal" font-weight="400" stroke="#212529" stroke-linecap="round" stroke-linejoin="bevel" stroke-opacity="1" stroke-width="3.5" transform="matrix(1,0,0,1,1482.43,1047.43)">
    <path d="M582.445,385 L582.445,-373.763 M-1.42109e-13,-135 L610.445,-135 M0,315 L610.445,315" fill-rule="evenodd" vector-effect="none"/>
   </g>
   <g fill="#212529" fill-opacity="1" font-family="Segoe UI" font-size="31.75" font-style="normal" font-weight="400" stroke="#212529" stroke-linecap="round" stroke-linejoin="bevel" stroke-opacity="1" stroke-width="3.5" transform="matrix(1,0,0,1,2064.87,912.425)">
    <path d="M0,0 L5.83333,-35 L-5.83333,-35 L0,0" fill-rule="evenodd" vector-effect="none"/>
   </g>
   <g fill="#212529" fill-opacity="1" font-family="Segoe UI" font-size="31.75" font-style="normal" font-weight="400" stroke="#212529" stroke-linecap="round" stroke-linejoin="bevel" stroke-opacity="1" stroke-width="3.5" transform="matrix(1,0,0,1,2064.87,1362.43)">
    <path d="M0,0 L-5.83333,35 L5.83333,35 L0,0" fill-rule="evenodd" vector-effect="none"/>
   </g>
   <g fill="none" font-family="Segoe UI" font-size="31.75" font-style="normal" font-weight="400" stroke="#212529" stroke-linecap="square" stroke-linejoin="bevel" stroke-opacity="1" stroke-width="1" transform="matrix(0.226593,-0.97399,0.97399,0.226593,1445,566.865)">
    <text fill="#212529" fill-opacity="1" font-family="osifont" font-size="67" font-style="normal" font-weight="400" stroke="none" x="4" xml:space="preserve" y="92">R0.2 mm</text>
   </g>
   <g fill="none" font-family="Segoe UI" font-size="31.75" font-style="normal" font-weight="400" stroke="#212529" stroke-linecap="round" stroke-linejoin="bevel" stroke-opacity="1" stroke-width="3.5" transform="matrix(1,0,0,1,1482.43,1047.43)">
    <path d="M-1.59872e-13,-135 L130.878,-697.569" fill-rule="evenodd" vector-effect="none"/>
   </g>
   <g fill="#212529" fill-opacity="1" font-family="Segoe UI" font-size="31.75" font-style="normal" font-weight="400" stroke="#212529" stroke-linecap="round" stroke-linejoin="bevel" stroke-opacity="1" stroke-width="3.5" transform="matrix(1,0,0,1,1523.21,737.107)">
    <path d="M0,0 L13.6123,-32.7678 L2.24913,-35.4114 L0,0" fill-rule="evenodd" vector-effect="none"/>
   </g>
   <g fill="none" font-family="Segoe UI" font-size="31.75" font-style="normal" font-weight="400" stroke="#212529" stroke-linecap="square" stroke-linejoin="bevel" stroke-opacity="1" stroke-width="1" transform="matrix(0.294958,-0.95551,0.95551,0.294958,2581.23,1081.2)">
    <text fill="#212529" fill-opacity="1" font-family="osifont" font-size="67" font-style="normal" font-weight="400" stroke="none" x="4" xml:space="preserve" y="92">R0.2 mm</text>
   </g>
   <g fill="none" font-family="Segoe UI" font-size="31.75" font-style="normal" font-weight="400" stroke="#212529" stroke-linecap="round" stroke-linejoin="bevel" stroke-opacity="1" stroke-width="3.5" transform="matrix(1,0,0,1,1482.43,1047.43)">
    <path d="M1282.05,-170.781 L1113.91,373.878" fill-rule="evenodd" vector-effect="none"/>
   </g>
   <g fill="#212529" fill-opacity="1" font-family="Segoe UI" font-size="31.75" font-style="normal" font-weight="400" stroke="#212529" stroke-linecap="round" stroke-linejoin="bevel" stroke-opacity="1" stroke-width="3.5" transform="matrix(1,0,0,1,2616.99,1354.42)">
    <path d="M0,0 L-15.8973,31.7223 L-4.74972,35.1634 L0,0" fill-rule="evenodd" vector-effect="none"/>
   </g>
   <g fill="none" font-family="Segoe UI" font-size="31.75" font-style="normal" font-weight="400" stroke="#212529" stroke-linecap="square" stroke-linejoin="bevel" stroke-opacity="1" stroke-width="1" transform="matrix(0.331542,0.943441,-0.943441,0.331542,286.476,812.707)">
    <text fill="#212529" fill-opacity="1" font-family="osifont" font-size="67" font-style="normal" font-weight="400" stroke="none" x="4" xml:space="preserve" y="92">R0.2 mm</text>
   </g>
   <g fill="none" font-family="Segoe UI" font-size="31.75" font-style="normal" font-weight="400" stroke="#212529" stroke-linecap="round" stroke-linejoin="bevel" stroke-opacity="1" stroke-width="3.5" transform="matrix(1,0,0,1,1482.43,1047.43)">
    <path d="M-1308.35,-208.466 L-1104.77,370.86" fill-rule="evenodd" vector-effect="none"/>
   </g>
   <g fill="#212529" fill-opacity="1" font-family="Segoe UI" font-size="31.75" font-style="normal" font-weight="400" stroke="#212529" stroke-linecap="round" stroke-linejoin="bevel" stroke-opacity="1" stroke-width="3.5" transform="matrix(1,0,0,1,354.449,1352.24)">
    <path d="M0,0 L6.10055,34.9544 L17.1074,31.0864 L0,0" fill-rule="evenodd" vector-effect="none"/>
   </g>
  </g>
 </g>
</svg>
